<svg width="13" height="9" viewBox="0 0 13 9" fill="none" xmlns="http://www.w3.org/2000/svg">
<path d="M2.24694 4.12206L1.03984 4.12206L1.89339 4.97561L4.45118 7.5334C4.46879 7.551 4.46879 7.5795 4.45118 7.5971C4.43362 7.61467 4.40504 7.61467 4.38748 7.5971L4.03392 7.95066L4.38747 7.5971L0.899245 4.10887C0.881638 4.09126 0.881638 4.06277 0.899244 4.04517L0.545692 3.69161L0.899249 4.04516L4.38724 0.557082C4.38728 0.557041 4.38732 0.557 4.38737 0.556959C4.39243 0.551925 4.39734 0.548945 4.40209 0.547021C4.40719 0.544949 4.41305 0.543753 4.41924 0.543753C4.43145 0.543753 4.44222 0.548064 4.45116 0.557009C4.4687 0.574621 4.46868 0.603059 4.45109 0.620643L4.45109 0.620648L1.89339 3.17844L1.03987 4.03198L2.24694 4.03198L11.5629 4.03198C11.5877 4.03198 11.6079 4.05219 11.6079 4.07702C11.6079 4.10187 11.5877 4.12206 11.5629 4.12206L2.24694 4.12206Z" fill="black" stroke="black"/>
</svg>
