<svg width="41" height="40" viewBox="0 0 41 40" fill="none" xmlns="http://www.w3.org/2000/svg">
<mask id="path-1-inside-1_2541_470" fill="white">
<path d="M39.5018 20C40.2721 20 40.9017 20.6253 40.8469 21.3937C40.5812 25.1142 39.2559 28.6982 37.0077 31.7335C34.4799 35.1463 30.9146 37.6909 26.8204 39.0041C22.7263 40.3174 18.3127 40.3322 14.2094 39.0464C10.1062 37.7606 6.52305 35.24 3.97141 31.8442C1.41976 28.4485 0.0300031 24.3512 0.000480029 20.137C-0.0290431 15.9229 1.30318 11.8074 3.80701 8.37773C6.31084 4.94811 9.85831 2.37968 13.9431 1.03903C17.5887 -0.157464 21.4961 -0.321461 25.2174 0.551541C25.9589 0.725493 26.3639 1.50524 26.1319 2.23066C25.9039 2.94324 25.1462 3.33469 24.4164 3.17007C21.248 2.45539 17.9298 2.60848 14.8306 3.62565C11.303 4.78342 8.23944 7.00146 6.07718 9.96322C3.91491 12.925 2.76443 16.4791 2.78993 20.1183C2.81542 23.7576 4.01559 27.296 6.21915 30.2285C8.42271 33.161 11.517 35.3377 15.0605 36.4481C18.604 37.5585 22.4155 37.5457 25.9511 36.4116C29.4868 35.2775 32.5658 33.0801 34.7487 30.1329C36.652 27.5633 37.7893 24.5382 38.0495 21.3932C38.113 20.6255 38.7315 20 39.5018 20Z"/>
</mask>
<path d="M39.5018 20C40.2721 20 40.9017 20.6253 40.8469 21.3937C40.5812 25.1142 39.2559 28.6982 37.0077 31.7335C34.4799 35.1463 30.9146 37.6909 26.8204 39.0041C22.7263 40.3174 18.3127 40.3322 14.2094 39.0464C10.1062 37.7606 6.52305 35.24 3.97141 31.8442C1.41976 28.4485 0.0300031 24.3512 0.000480029 20.137C-0.0290431 15.9229 1.30318 11.8074 3.80701 8.37773C6.31084 4.94811 9.85831 2.37968 13.9431 1.03903C17.5887 -0.157464 21.4961 -0.321461 25.2174 0.551541C25.9589 0.725493 26.3639 1.50524 26.1319 2.23066C25.9039 2.94324 25.1462 3.33469 24.4164 3.17007C21.248 2.45539 17.9298 2.60848 14.8306 3.62565C11.303 4.78342 8.23944 7.00146 6.07718 9.96322C3.91491 12.925 2.76443 16.4791 2.78993 20.1183C2.81542 23.7576 4.01559 27.296 6.21915 30.2285C8.42271 33.161 11.517 35.3377 15.0605 36.4481C18.604 37.5585 22.4155 37.5457 25.9511 36.4116C29.4868 35.2775 32.5658 33.0801 34.7487 30.1329C36.652 27.5633 37.7893 24.5382 38.0495 21.3932C38.113 20.6255 38.7315 20 39.5018 20Z" stroke="black" stroke-width="4" mask="url(#path-1-inside-1_2541_470)"/>
</svg>
