<svg width="9" height="5" viewBox="0 0 9 5" fill="none" xmlns="http://www.w3.org/2000/svg">
<path d="M4.86842 4.06846L7.86297 1.09141C8.04568 0.909775 8.04568 0.615195 7.86297 0.433558C7.68023 0.251884 7.38399 0.251884 7.20125 0.433558L5.00546 2.61652C5.00546 2.61652 4.7845 2.86252 4.53934 2.85736C4.30008 2.85232 4.06966 2.61652 4.06966 2.61652L1.87387 0.433632C1.69113 0.251958 1.39489 0.251958 1.21215 0.433632C1.12085 0.524432 1.07511 0.643514 1.07511 0.762559C1.07511 0.881603 1.12085 1.00065 1.21215 1.09149L4.2067 4.06846C4.38944 4.25013 4.68568 4.25013 4.86842 4.06846Z" fill="black" stroke="black" stroke-width="0.5"/>
</svg>
