<svg width="29" height="23" viewBox="0 0 29 23" fill="none" xmlns="http://www.w3.org/2000/svg">
<path d="M26.5611 13.7475V6.26942L26.8716 6.17628C28.0649 5.81812 28.3154 5.21177 28.3154 4.76615C28.3154 4.32053 28.0648 3.71417 26.8715 3.35618L16.6597 0.292585C16.0307 0.103898 15.2064 0 14.3387 0C13.471 0 12.6468 0.103898 12.0177 0.292585L1.80585 3.35618C0.612362 3.71417 0.361816 4.32053 0.361816 4.7662C0.361816 5.21182 0.612307 5.81823 1.8058 6.17633L5.62501 7.3221V13.4958C5.62501 14.2624 6.12332 15.3423 8.49725 16.1336C10.0696 16.6577 12.1442 16.9464 14.3386 16.9464C16.533 16.9464 18.6076 16.6577 20.18 16.1336C22.5539 15.3422 23.0522 14.2624 23.0522 13.4958V7.32216L24.9232 6.76085V13.7475C23.9047 14.0905 23.1688 15.0538 23.1688 16.1865V19.6952C23.1688 21.1142 24.3231 22.2686 25.7421 22.2686C27.161 22.2686 28.3154 21.1142 28.3154 19.6952V16.1865C28.3155 15.0538 27.5796 14.0904 26.5611 13.7475ZM12.4883 1.86143C12.9619 1.71931 13.6363 1.63785 14.3387 1.63785C15.041 1.63785 15.7155 1.71931 16.189 1.86137L25.8716 4.7662L21.9939 5.92955C21.9917 5.93026 21.9895 5.93086 21.9873 5.93157L16.1891 7.67109C15.7155 7.81315 15.0411 7.89461 14.3388 7.89461C13.6365 7.89461 12.962 7.81315 12.4884 7.67109L6.6902 5.93157C6.68796 5.93086 6.68578 5.93026 6.68354 5.92955L2.80585 4.7662L12.4883 1.86143ZM21.4144 11.3451C21.4144 13.6013 21.1171 14.0947 19.6621 14.5796C18.2523 15.0496 16.3617 15.3084 14.3387 15.3084C12.3156 15.3084 10.425 15.0496 9.01526 14.5796C7.56036 14.0947 7.26292 13.6013 7.26292 13.4957V7.81342L12.0177 9.23987C12.6467 9.42856 13.471 9.53246 14.3387 9.53246C15.2064 9.53246 16.0306 9.42856 16.6597 9.23987L21.4144 7.81342V11.3451ZM26.6776 19.6952C26.6776 20.211 26.258 20.6306 25.7422 20.6306C25.2264 20.6306 24.8068 20.211 24.8068 19.6952V16.1865C24.8068 15.6706 25.2263 15.2509 25.7422 15.2509C26.258 15.2509 26.6776 15.6706 26.6776 16.1865V19.6952Z" fill="white"/>
</svg>
