<svg width="27" height="26" viewBox="0 0 27 26" fill="none" xmlns="http://www.w3.org/2000/svg">
<path d="M25.6608 11.3087C25.6602 11.3082 25.6596 11.3076 25.659 11.307L15.0531 0.701416C14.601 0.249146 14 0 13.3607 0C12.7213 0 12.1203 0.248947 11.668 0.701218L1.06762 11.3014C1.06405 11.305 1.06048 11.3087 1.05691 11.3123C0.128567 12.246 0.130154 13.7609 1.06147 14.6922C1.48697 15.1179 2.04893 15.3645 2.64978 15.3903C2.67418 15.3927 2.69877 15.3939 2.72357 15.3939H3.14628V23.1989C3.14628 24.7434 4.40292 26 5.94778 26H10.0972C10.5177 26 10.8589 25.659 10.8589 25.2383V19.1191C10.8589 18.4144 11.4322 17.8411 12.1369 17.8411H14.5844C15.2892 17.8411 15.8624 18.4144 15.8624 19.1191V25.2383C15.8624 25.659 16.2034 26 16.6241 26H20.7735C22.3184 26 23.575 24.7434 23.575 23.1989V15.3939H23.967C24.6061 15.3939 25.2072 15.1449 25.6596 14.6926C26.5919 13.7597 26.5923 12.2422 25.6608 11.3087Z" fill="white"/>
</svg>
