<svg width="27" height="24" viewBox="0 0 27 24" fill="none" xmlns="http://www.w3.org/2000/svg">
<path d="M23.5113 0.311127H3.14786C1.61163 0.311127 0.361816 1.56094 0.361816 3.09717V16.4702C0.361816 18.0064 1.61163 19.2562 3.14786 19.2562H9.70842C9.78851 19.2562 9.86464 19.2946 9.91221 19.3591L12.3058 22.6043C12.5457 22.9295 12.915 23.1171 13.3191 23.119H13.3252C13.727 23.119 14.0956 22.935 14.3372 22.6136L16.7852 19.3573C16.8327 19.2939 16.9085 19.2561 16.9876 19.2561H23.5113C25.0475 19.2561 26.2973 18.0063 26.2973 16.4701V3.09712C26.2973 1.56089 25.0475 0.311127 23.5113 0.311127ZM24.7776 16.4702C24.7776 16.5898 24.7606 16.7054 24.7295 16.8152L16.9232 9.9723L24.7776 3.45408V16.4702ZM23.5113 1.83078C23.7429 1.83078 23.9601 1.8936 24.147 2.00266L14.1405 10.3069C13.6718 10.6958 12.9916 10.6958 12.523 10.3069L2.51461 2.00119C2.70103 1.89304 2.91727 1.83078 3.14786 1.83078H23.5113ZM1.92965 16.8152C1.89849 16.7054 1.88147 16.5898 1.88147 16.4702V3.45054L9.738 9.97043L1.92965 16.8152ZM15.5705 18.4441L13.3269 21.4285L11.1352 18.4571C10.8025 18.0059 10.269 17.7365 9.70837 17.7365H3.18397L10.9222 10.9532L11.5525 11.4763C12.068 11.9041 12.6997 12.1179 13.3317 12.1179C13.9635 12.1179 14.5954 11.9039 15.1109 11.4763L15.7389 10.955L23.475 17.7365H16.9876C16.4334 17.7365 15.9036 18.001 15.5705 18.4441Z" fill="white"/>
</svg>
