<svg width="33" height="20" viewBox="0 0 33 20" fill="none" xmlns="http://www.w3.org/2000/svg">
<path d="M10.22 4.48C8.68 4.48 7.5 4.95 6.68 5.89C5.86 6.83 5.45 8.16 5.45 9.88C5.45 11.62 5.9 12.96 6.8 13.9C7.72 14.84 8.95 15.31 10.49 15.31C11.31 15.31 12 15.2 12.56 14.98C13.14 14.76 13.69 14.51 14.21 14.23C14.55 14.51 14.81 14.85 14.99 15.25C15.19 15.63 15.29 16.08 15.29 16.6C15.29 17.42 14.83 18.12 13.91 18.7C13.01 19.26 11.63 19.54 9.77 19.54C8.43 19.54 7.17 19.35 5.99 18.97C4.81 18.59 3.78 18.01 2.9 17.23C2.02 16.43 1.32 15.43 0.8 14.23C0.3 13.01 0.05 11.56 0.05 9.88C0.05 8.32 0.29 6.95 0.77 5.77C1.27 4.57 1.94 3.56 2.78 2.74C3.64 1.92 4.64 1.3 5.78 0.879999C6.92 0.46 8.14 0.25 9.44 0.25C11.28 0.25 12.7 0.55 13.7 1.15C14.72 1.75 15.23 2.52 15.23 3.46C15.23 3.98 15.1 4.43 14.84 4.81C14.58 5.19 14.28 5.49 13.94 5.71C13.42 5.37 12.86 5.08 12.26 4.84C11.68 4.6 11 4.48 10.22 4.48ZM24.8987 9.25C25.7387 9.25 26.3787 9.06 26.8187 8.68C27.2787 8.28 27.5087 7.68 27.5087 6.88C27.5087 6.12 27.2687 5.54 26.7887 5.14C26.3287 4.72 25.6487 4.51 24.7487 4.51C24.4287 4.51 24.1587 4.52 23.9387 4.54C23.7387 4.54 23.5287 4.56 23.3087 4.6V9.25H24.8987ZM23.3387 18.88C23.1187 18.94 22.7687 19 22.2887 19.06C21.8287 19.12 21.3687 19.15 20.9087 19.15C20.4487 19.15 20.0387 19.11 19.6787 19.03C19.3387 18.97 19.0487 18.85 18.8087 18.67C18.5687 18.49 18.3887 18.24 18.2687 17.92C18.1487 17.6 18.0887 17.18 18.0887 16.66V2.53C18.0887 2.11 18.1987 1.79 18.4187 1.57C18.6587 1.33 18.9787 1.14 19.3787 0.999999C20.0587 0.759999 20.8287 0.589999 21.6887 0.489999C22.5687 0.369999 23.4487 0.309999 24.3287 0.309999C27.0887 0.309999 29.1987 0.899999 30.6587 2.08C32.1187 3.26 32.8487 4.86 32.8487 6.88C32.8487 7.86 32.6887 8.75 32.3687 9.55C32.0687 10.33 31.6087 11.01 30.9887 11.59C30.3887 12.15 29.6187 12.59 28.6787 12.91C27.7587 13.21 26.6887 13.36 25.4687 13.36H23.3387V18.88Z" fill="black"/>
</svg>
