<svg width="71" height="42" viewBox="0 0 71 42" fill="none" xmlns="http://www.w3.org/2000/svg">
<path d="M21.936 9.024C18.6507 9.024 16.1333 10.0267 14.384 12.032C12.6347 14.0373 11.76 16.8747 11.76 20.544C11.76 24.256 12.72 27.1147 14.64 29.12C16.6027 31.1253 19.2267 32.128 22.512 32.128C24.2613 32.128 25.7333 31.8933 26.928 31.424C28.1653 30.9547 29.3387 30.4213 30.448 29.824C31.1733 30.4213 31.728 31.1467 32.112 32C32.5387 32.8107 32.752 33.7707 32.752 34.88C32.752 36.6293 31.7707 38.1227 29.808 39.36C27.888 40.5547 24.944 41.152 20.976 41.152C18.1173 41.152 15.4293 40.7467 12.912 39.936C10.3947 39.1253 8.19733 37.888 6.32 36.224C4.44267 34.5173 2.94933 32.384 1.84 29.824C0.773333 27.2213 0.24 24.128 0.24 20.544C0.24 17.216 0.752 14.2933 1.776 11.776C2.84267 9.216 4.272 7.06133 6.064 5.312C7.89867 3.56267 10.032 2.24 12.464 1.344C14.896 0.447999 17.4987 0 20.272 0C24.1973 0 27.2267 0.639999 29.36 1.92C31.536 3.2 32.624 4.84267 32.624 6.848C32.624 7.95733 32.3467 8.91733 31.792 9.728C31.2373 10.5387 30.5973 11.1787 29.872 11.648C28.7627 10.9227 27.568 10.304 26.288 9.792C25.0507 9.28 23.6 9.024 21.936 9.024ZM53.2505 19.2C55.0425 19.2 56.4078 18.7947 57.3465 17.984C58.3278 17.1307 58.8185 15.8507 58.8185 14.144C58.8185 12.5227 58.3065 11.2853 57.2825 10.432C56.3012 9.536 54.8505 9.088 52.9305 9.088C52.2478 9.088 51.6718 9.10933 51.2025 9.152C50.7758 9.152 50.3278 9.19467 49.8585 9.28V19.2H53.2505ZM49.9225 39.744C49.4532 39.872 48.7065 40 47.6825 40.128C46.7012 40.256 45.7198 40.32 44.7385 40.32C43.7572 40.32 42.8825 40.2347 42.1145 40.064C41.3892 39.936 40.7705 39.68 40.2585 39.296C39.7465 38.912 39.3625 38.3787 39.1065 37.696C38.8505 37.0133 38.7225 36.1173 38.7225 35.008V4.864C38.7225 3.968 38.9572 3.28533 39.4265 2.816C39.9385 2.304 40.6212 1.89866 41.4745 1.6C42.9252 1.088 44.5678 0.72533 46.4025 0.511997C48.2798 0.255998 50.1572 0.127998 52.0345 0.127998C57.9225 0.127998 62.4238 1.38667 65.5385 3.904C68.6532 6.42133 70.2105 9.83467 70.2105 14.144C70.2105 16.2347 69.8692 18.1333 69.1865 19.84C68.5465 21.504 67.5652 22.9547 66.2425 24.192C64.9625 25.3867 63.3198 26.3253 61.3145 27.008C59.3518 27.648 57.0692 27.968 54.4665 27.968H49.9225V39.744Z" fill="white"/>
</svg>
