<svg width="41" height="41" viewBox="0 0 41 41" fill="none" xmlns="http://www.w3.org/2000/svg">
<path d="M28.6033 30.9351V34.0601C28.6033 37.5064 25.7995 40.3101 22.353 40.3101H6.6492C3.2027 40.3101 0.398926 37.5064 0.398926 34.0601V6.56006C0.398926 3.11371 3.2027 0.310059 6.6492 0.310059H22.353C25.7995 0.310059 28.6033 3.11371 28.6033 6.56006V9.68506C28.6033 10.5481 27.9038 11.2476 27.0407 11.2476C26.1776 11.2476 25.4782 10.5481 25.4782 9.68506V6.56006C25.4782 4.83704 24.0761 3.43506 22.353 3.43506H6.6492C4.9261 3.43506 3.52406 4.83704 3.52406 6.56006V34.0601C3.52406 35.7831 4.9261 37.1851 6.6492 37.1851H22.353C24.0761 37.1851 25.4782 35.7831 25.4782 34.0601V30.9351C25.4782 30.072 26.1776 29.3726 27.0407 29.3726C27.9038 29.3726 28.6033 30.072 28.6033 30.9351ZM39.2565 17.626L35.7575 14.1272C35.1472 13.5168 34.1577 13.5168 33.5477 14.1272C32.9373 14.7372 32.9373 15.7266 33.5477 16.3367L36.0365 18.8257H17.2747C16.4116 18.8257 15.7121 19.5251 15.7121 20.3882C15.7121 21.2512 16.4116 21.9507 17.2747 21.9507H36.0365L33.5477 24.4397C32.9373 25.0497 32.9373 26.0391 33.5477 26.6492C33.8528 26.9543 34.2526 27.1069 34.6524 27.1069C35.0525 27.1069 35.4523 26.9543 35.7575 26.6492L39.2565 23.1503C40.7797 21.6272 40.7797 19.1492 39.2565 17.626Z" fill="white"/>
</svg>
