<svg width="24" height="27" viewBox="0 0 24 27" fill="none" xmlns="http://www.w3.org/2000/svg">
<path d="M11.8063 0.268547C8.01997 0.268547 4.93958 3.34895 4.93958 7.13524C4.93958 10.9215 8.01997 14.0019 11.8063 14.0019C15.5926 14.0019 18.673 10.9215 18.673 7.13524C18.673 3.34895 15.5926 0.268547 11.8063 0.268547ZM11.8063 12.476C8.86137 12.476 6.46551 10.0801 6.46551 7.13524C6.46551 4.19035 8.86137 1.79448 11.8063 1.79448C14.7512 1.79448 17.147 4.19035 17.147 7.13524C17.147 10.0801 14.7512 12.476 11.8063 12.476Z" fill="white"/>
<path d="M20.3498 18.4879C18.4699 16.5791 15.9777 15.5279 13.3322 15.5279H10.2804C7.63502 15.5279 5.14277 16.5791 3.26282 18.4879C1.39208 20.3874 0.361816 22.8947 0.361816 25.5482C0.361816 25.9695 0.703422 26.3111 1.12478 26.3111H22.4878C22.9092 26.3111 23.2508 25.9695 23.2508 25.5482C23.2508 22.8947 22.2205 20.3874 20.3498 18.4879ZM1.92132 24.7852C2.30357 20.4574 5.9066 17.0538 10.2804 17.0538H13.3322C17.706 17.0538 21.3091 20.4574 21.6913 24.7852H1.92132Z" fill="white"/>
</svg>
