<svg width="27" height="27" viewBox="0 0 27 27" fill="none" xmlns="http://www.w3.org/2000/svg">
<path d="M14.1777 26.119H12.5459C11.2262 26.119 10.1524 25.0452 10.1524 23.7255V23.1734C9.59131 22.9942 9.04617 22.7679 8.52246 22.4969L8.13125 22.8881C7.18372 23.8368 5.66592 23.809 4.74591 22.8877L3.59262 21.7345C2.67099 20.8139 2.64448 19.2966 3.59293 18.3492L3.98384 17.9583C3.71282 17.4346 3.48659 16.8895 3.30728 16.3283H2.75529C1.43559 16.3283 0.361816 15.2546 0.361816 13.9349V12.3031C0.361816 10.9833 1.43559 9.90958 2.75534 9.90958H3.30733C3.48664 9.34845 3.71287 8.80336 3.98389 8.27966L3.59267 7.88849C2.64479 6.94162 2.67094 5.42418 3.59298 4.50316L4.74637 3.34981C5.66851 2.42641 7.18595 2.40335 8.13165 3.35012L8.52252 3.74098C9.04622 3.47001 9.59136 3.24373 10.1524 3.06442V2.51243C10.1524 1.19268 11.2262 0.118958 12.546 0.118958H14.1777C15.4975 0.118958 16.5712 1.19268 16.5712 2.51243V3.06447C17.1323 3.24373 17.6774 3.47001 18.2011 3.74103L18.5923 3.34981C19.5399 2.40112 21.0577 2.42895 21.9777 3.35017L23.131 4.50341C24.0526 5.42402 24.0791 6.94132 23.1307 7.88874L22.7397 8.27966C23.0108 8.80336 23.237 9.3484 23.4163 9.90958H23.9683C25.288 9.90958 26.3618 10.9833 26.3618 12.3031V13.9349C26.3618 15.2546 25.288 16.3283 23.9683 16.3283H23.4163C23.237 16.8895 23.0108 17.4346 22.7397 17.9583L23.131 18.3495C24.0788 19.2963 24.0527 20.8138 23.1307 21.7348L21.9773 22.8882C21.0551 23.8116 19.5377 23.8346 18.592 22.8878L18.2011 22.497C17.6774 22.768 17.1323 22.9942 16.5712 23.1735V23.7256C16.5712 25.0452 15.4975 26.119 14.1777 26.119ZM8.77713 20.8971C9.50468 21.3274 10.2877 21.6524 11.1045 21.8632C11.4409 21.95 11.6759 22.2534 11.6759 22.6008V23.7255C11.6759 24.2052 12.0662 24.5955 12.546 24.5955H14.1777C14.6574 24.5955 15.0478 24.2052 15.0478 23.7255V22.6008C15.0478 22.2534 15.2828 21.95 15.6192 21.8632C16.436 21.6524 17.219 21.3274 17.9466 20.8971C18.2459 20.7201 18.627 20.7682 18.873 21.0142L19.6696 21.8109C20.0131 22.1548 20.5647 22.1468 20.8997 21.8112L22.0538 20.6572C22.3881 20.3233 22.3993 19.7717 22.0541 19.427L21.2571 18.63C21.0112 18.3841 20.9631 18.0029 21.1401 17.7036C21.5704 16.9761 21.8954 16.1931 22.1061 15.3763C22.193 15.0399 22.4963 14.8049 22.8437 14.8049H23.9683C24.4481 14.8049 24.8384 14.4146 24.8384 13.9349V12.3031C24.8384 11.8234 24.4481 11.4331 23.9683 11.4331H22.8437C22.4963 11.4331 22.193 11.1981 22.1061 10.8617C21.8954 10.0449 21.5703 9.26187 21.1401 8.53438C20.9631 8.23507 21.0112 7.85391 21.2571 7.60802L22.0538 6.81132C22.3982 6.46732 22.3892 5.91584 22.0541 5.58114L20.9001 4.42714C20.5656 4.09218 20.014 4.08238 19.67 4.42683L18.873 5.22384C18.6271 5.46978 18.2459 5.51792 17.9466 5.3409C17.2191 4.91063 16.436 4.58557 15.6192 4.37478C15.2829 4.288 15.0479 3.98463 15.0479 3.63723V2.51243C15.0479 2.0327 14.6575 1.6424 14.1778 1.6424H12.546C12.0663 1.6424 11.6759 2.0327 11.6759 2.51243V3.63713C11.6759 3.98453 11.4409 4.2879 11.1045 4.37468C10.2878 4.58547 9.50473 4.91052 8.77718 5.34079C8.47778 5.51777 8.09666 5.46963 7.85078 5.22374L7.05413 4.42704C6.71064 4.08314 6.159 4.09112 5.824 4.42668L4.66989 5.58073C4.33565 5.91457 4.32448 6.46621 4.66959 6.81091L5.4666 7.60792C5.71248 7.85381 5.76062 8.23497 5.58365 8.53427C5.15338 9.26177 4.82838 10.0448 4.61759 10.8616C4.53075 11.198 4.22739 11.433 3.88004 11.433H2.75534C2.27561 11.433 1.88525 11.8233 1.88525 12.3031V13.9349C1.88525 14.4146 2.27561 14.8049 2.75534 14.8049H3.87999C4.22739 14.8049 4.5307 15.0399 4.61754 15.3762C4.82833 16.1931 5.15338 16.9761 5.5836 17.7036C5.76057 18.0029 5.71243 18.3841 5.46655 18.6299L4.66984 19.4266C4.32545 19.7706 4.33443 20.3221 4.66954 20.6568L5.82354 21.8108C6.15804 22.1458 6.70973 22.1556 7.05372 21.8111L7.85068 21.0141C8.03187 20.833 8.40882 20.6793 8.77713 20.8971Z" fill="white"/>
<path d="M13.3617 18.776C10.2424 18.776 7.70471 16.2382 7.70471 13.1189C7.70471 9.99966 10.2424 7.46191 13.3617 7.46191C16.4811 7.46191 19.0188 9.99966 19.0188 13.1189C19.0188 16.2382 16.4811 18.776 13.3617 18.776ZM13.3617 8.98535C11.0824 8.98535 9.22815 10.8397 9.22815 13.1189C9.22815 15.3982 11.0825 17.2525 13.3617 17.2525C15.641 17.2525 17.4953 15.3982 17.4953 13.1189C17.4953 10.8397 15.6411 8.98535 13.3617 8.98535Z" fill="white"/>
</svg>
